<svg xmlns="http://www.w3.org/2000/svg" width="529" height="388" viewBox="0 0 273.76 200.86" shape-rendering="geometricPrecision" text-rendering="geometricPrecision" image-rendering="optimizeQuality" fill-rule="evenodd" clip-rule="evenodd" data-prefix="irpu0gd56" fill="#fff"><path d="M62.85 0c34.71 0 62.85 28.14 62.85 62.85 0 0 .15.49.28 1.7.72 6.98-5.37 37.94-42.4 136.31H55.72l7.13-75.16C28.14 125.7 0 97.56 0 62.85S28.14 0 62.85 0zm55.76 91.86zm-1.68 3.01zm-1.64 2.62c-.26.39-.52.78-.79 1.16.27-.38.53-.77.79-1.16zM114.26 99c-.15.22-.31.44-.47.66.16-.22.32-.44.47-.66zm-3.47 4.48c-.27.32-.55.64-.83.96.28-.32.56-.64.83-.96zm-2.06 2.32l-.71.74.71-.74zm-5.52 5.22l-.73.61.73-.61zM210.58 0c34.71 0 62.84 28.14 62.84 62.85 0 0 .16.49.28 1.7.73 6.98-5.36 37.94-42.39 136.31h-27.86l7.13-75.16c-34.71 0-62.85-28.14-62.85-62.85S175.87 0 210.58 0zm55.76 91.86c-.26.49-.52.97-.78 1.45.26-.48.52-.96.78-1.45zm-1.68 3.01c-.23.38-.45.76-.69 1.14.24-.38.46-.76.69-1.14zm-1.64 2.62c-.26.39-.52.78-.79 1.16.27-.38.53-.77.79-1.16zM261.99 99c-.15.22-.31.44-.47.66.16-.22.32-.44.47-.66zm-3.47 4.48c-.27.32-.55.64-.83.96.28-.32.56-.64.83-.96zm-2.07 2.32zm-5.51 5.22z" class="path-iphjbd87m"></path></svg>