<svg width="24" height="24" viewBox="0 0 24 24" xmlns="http://www.w3.org/2000/svg" data-prefix="ikasgojci" fill="#9e7af9"><path d="M12.25 2c4.549 0 8.25 3.729 8.25 8.313 0 5.635-6.457 11.187-8.25 11.187C10.454 21.5 4 15.948 4 10.313 4 5.729 7.7 2 12.25 2zm0 1.5c-3.723 0-6.75 3.057-6.75 6.813 0 4.779 5.623 9.435 6.75 9.683 1.126-.249 6.75-4.905 6.75-9.683C19 6.557 15.97 3.5 12.25 3.5zm0 3.5a3.254 3.254 0 0 1 3.25 3.251 3.253 3.253 0 0 1-3.25 3.249A3.253 3.253 0 0 1 9 10.251 3.254 3.254 0 0 1 12.25 7zm0 1.5A1.751 1.751 0 1 0 14 10.251c0-.966-.785-1.751-1.75-1.751z"></path></svg>