<?xml version="1.0" encoding="UTF-8" standalone="no"?>
<!-- Created with Inkscape (http://www.inkscape.org/) -->

<svg
   width="175.85632mm"
   height="166.57059mm"
   viewBox="0 0 175.85632 166.57059"
   version="1.1"
   id="svg5"
   xml:space="preserve"
   inkscape:version="1.2.1 (9c6d41e410, 2022-07-14)"
   sodipodi:docname="mapo.svg"
   inkscape:export-filename="mapo.png"
   inkscape:export-xdpi="96"
   inkscape:export-ydpi="96"
   xmlns:inkscape="http://www.inkscape.org/namespaces/inkscape"
   xmlns:sodipodi="http://sodipodi.sourceforge.net/DTD/sodipodi-0.dtd"
   xmlns:xlink="http://www.w3.org/1999/xlink"
   xmlns="http://www.w3.org/2000/svg"
   xmlns:svg="http://www.w3.org/2000/svg"><sodipodi:namedview
     id="namedview7"
     pagecolor="#ffffff"
     bordercolor="#cccccc"
     borderopacity="1"
     inkscape:showpageshadow="0"
     inkscape:pageopacity="1"
     inkscape:pagecheckerboard="0"
     inkscape:deskcolor="#d1d1d1"
     inkscape:document-units="mm"
     showgrid="false"
     inkscape:zoom="0.92734032"
     inkscape:cx="287.38101"
     inkscape:cy="274.44078"
     inkscape:window-width="1920"
     inkscape:window-height="1004"
     inkscape:window-x="0"
     inkscape:window-y="0"
     inkscape:window-maximized="1"
     inkscape:current-layer="layer1" /><defs
     id="defs2" /><g
     inkscape:label="Layer 1"
     inkscape:groupmode="layer"
     id="layer1"
     transform="translate(-20.522173,-5.916667)"><text
       xml:space="preserve"
       style="font-style:normal;font-variant:normal;font-weight:bold;font-stretch:normal;font-size:14.2332px;line-height:1.25;font-family:sans-serif;-inkscape-font-specification:'sans-serif, Bold';font-variant-ligatures:normal;font-variant-caps:normal;font-variant-numeric:normal;font-variant-east-asian:normal;fill:#ffffff;fill-opacity:1;stroke:none;stroke-width:0.533743"
       x="85.940605"
       y="123.63879"
       id="text512"><tspan
         sodipodi:role="line"
         id="tspan510"
         style="font-style:normal;font-variant:normal;font-weight:bold;font-stretch:normal;font-size:14.2332px;font-family:sans-serif;-inkscape-font-specification:'sans-serif, Bold';font-variant-ligatures:normal;font-variant-caps:normal;font-variant-numeric:normal;font-variant-east-asian:normal;fill:#ffffff;stroke-width:0.533743;fill-opacity:1"
         x="85.940605"
         y="123.63879"> МАПО</tspan></text><path
       style="fill:#9e7af9;fill-opacity:1;stroke:#ffffff;stroke-width:0.264583px;stroke-linecap:butt;stroke-linejoin:miter;stroke-opacity:1"
       d="m 75.252312,66.747579 71.577968,-0.180242 v 0 l -0.24711,45.902703 c -13.61475,-6.26413 -21.78797,-6.59702 -35.69575,-2.76476 -17.458462,-4.65438 -26.500706,-1.0156 -35.224867,2.80767 h -0.03026 z"
       id="path12288"
       sodipodi:nodetypes="cccccccc" /><path
       style="fill:#9e7af9;stroke:#ffffff;stroke-width:0.264583px;stroke-linecap:butt;stroke-linejoin:miter;stroke-opacity:1"
       d="m 81.377548,63.388513 c 0.04014,-2.613421 18.761662,-2.407277 29.424442,5.188807 15.44395,-8.984452 29.41161,-5.246988 29.41161,-5.246988 l -0.20235,39.681928 c 0,0 -21.2834,-2.13489 -29.52985,4.32519 -8.43145,-6.70287 -28.937744,-3.32288 -28.937744,-3.32288 0,0 -0.37407,-27.085522 -0.166108,-40.626057 z"
       id="path12403"
       sodipodi:nodetypes="scccccs" /><path
       style="fill:#f0f0f0;fill-opacity:1;fill-rule:nonzero;stroke:none;stroke-width:0.0215393"
       d="m 129.95866,73.278858 c -0.22251,-0.01755 -0.20895,0.06942 -0.38857,0.144116 -0.1872,0.07777 -0.33429,0.143712 -0.51609,0.252122 -0.41896,0.24971 -0.90076,0.433525 -1.24734,0.789272 -0.1989,0.204169 -0.30715,0.435287 -0.42476,0.68842 -0.0867,0.186358 -0.4562,0.406427 -0.3778,0.645232 0.0758,0.230709 0.75193,0.05204 0.65931,0.431412 -0.0461,0.189163 -0.2367,0.147404 -0.37566,0.157108 -0.10847,0.0075 -0.45962,0.104553 -0.52445,0.189122 -0.09,0.117326 -0.11903,0.255455 -0.23026,0.362894 -0.12446,0.120231 -0.28754,0.173266 -0.38405,0.325094 -0.19265,0.303189 -0.0234,0.654428 -0.49821,0.743799 -0.2294,0.04322 -0.25978,-0.1053 -0.43165,-0.192995 -0.18821,-0.09603 -0.52341,-0.08432 -0.70993,0.0092 -0.34659,0.173811 -0.35972,0.572474 -0.60398,0.817657 -0.21665,0.217464 -0.37198,0.168162 -0.64531,0.200863 -0.18741,0.02243 -0.37091,0.07842 -0.56001,0.07999 0.004,-0.06736 0.044,-0.187852 -4.6e-4,-0.24548 -0.0896,-0.115551 -0.41697,0.05792 -0.48074,0.140041 -0.11983,0.154404 -0.072,0.379459 -0.12548,0.55776 -0.0509,0.168929 -0.14545,0.15043 -0.20374,-2e-5 -0.0228,-0.05918 -0.0428,-0.116035 -0.0727,-0.172298 h -0.0215 c -0.0142,0.0489 -0.0386,0.117952 -0.10573,0.08787 -0.0686,-0.03081 -0.0778,-0.126868 -0.15554,-0.144762 -0.16562,-0.0381 -0.58111,0.20417 -0.66511,0.340666 -0.0514,0.08352 -0.12145,0.288216 -0.0908,0.383962 0.0529,0.165398 0.23455,0.287809 0.24856,0.473759 0.01,0.13296 -0.16905,0.162675 -0.26536,0.193963 0.0316,0.06271 0.1021,0.108125 0.12548,0.173105 0.0321,0.08898 -0.0753,0.143309 -0.14687,0.153052 -0.16663,0.02263 -0.33061,-0.145971 -0.49433,-0.0608 -0.11923,0.0621 -0.0835,0.200015 -0.16119,0.290068 -0.14101,0.163018 -0.3386,0.05525 -0.50769,0.02617 -0.0482,0.20503 0.11721,0.501975 0.0329,0.684345 -0.0946,0.205206 -0.57725,-0.02627 -0.67678,-0.126586 -0.0717,-0.0722 -0.0732,-0.224054 -0.14444,-0.276846 -0.0734,-0.05433 -0.19528,0.02603 -0.24168,-0.0891 -0.0359,-0.0891 0.0988,-0.143329 0.0918,-0.233702 -0.008,-0.09038 -0.11923,-0.08021 -0.16401,-0.139758 -0.0385,-0.0511 -0.022,-0.12705 -0.0496,-0.184523 -0.062,-0.128644 -0.25309,-0.293239 -0.39912,-0.313359 -0.10936,-0.01493 -0.17167,0.09253 -0.25848,0.13748 -0.14202,0.07345 -0.46786,-0.08231 -0.54366,0.09457 -0.084,0.195679 0.19305,0.321305 -0.0596,0.480478 -0.23049,0.145205 -0.55574,0.228422 -0.81852,0.13072 -0.21453,-0.07975 -0.33212,-0.224824 -0.58156,-0.204796 -0.20849,0.01674 -0.57142,0.15269 -0.51693,0.407247 l -0.45233,-0.234072 -0.40927,0.186964 -0.23217,0.05404 -0.17752,0.220649 -0.25806,0.08545 -0.28,0.203911 c 0.0891,-0.302666 0.39287,-0.540653 0.59041,-0.775415 0.14827,-0.17613 0.23519,-0.38538 0.38511,-0.560023 0.1295,-0.151096 0.33709,-0.317037 0.38898,-0.516941 0.0452,-0.174658 -0.1293,-0.212748 -0.18155,-0.344955 -0.0337,-0.08517 0.077,-0.145144 0.0367,-0.235769 -0.10122,-0.22709 -0.51005,-0.40522 -0.74569,-0.408906 -0.14283,-0.002 -0.33645,0.280099 -0.42152,0.205014 -0.0756,-0.06676 -0.0343,-0.188597 -0.1065,-0.258688 -0.0884,-0.08581 -0.27764,-0.06024 -0.3354,-0.188134 -0.0448,-0.0995 0.18983,-0.258513 -0.063,-0.292097 -0.25609,-0.03403 -0.46009,0.318439 -0.48506,0.532713 -0.0121,0.108818 0.057,0.270835 -0.0775,0.328647 -0.0739,0.03183 -0.15876,0.0067 -0.23264,0.04428 -0.2169,0.110426 -0.36703,0.276002 -0.62659,0.309776 -0.17187,0.02238 -0.18822,-0.158297 -0.32352,-0.157975 -0.14202,3.21e-4 -0.20181,0.168606 -0.32266,0.21873 -0.24469,0.101344 -0.52404,0.0657 -0.77542,0.188296 -0.17913,0.08737 -0.38316,0.350275 -0.40557,0.554447 -0.0181,0.173387 0.047,0.391738 -0.0766,0.536223 -0.0399,0.04648 -0.11357,0.109378 -0.17974,0.08328 -0.0692,-0.02723 -0.0988,-0.100541 -0.17792,-0.122833 -0.34182,-0.09641 -0.71016,-0.0018 -1.05542,-0.06589 -0.0581,0.171794 -0.13496,0.47382 -0.0555,0.646182 0.0901,0.195154 0.34789,0.455233 0.32958,0.68926 -0.008,0.1023 -0.0755,0.200196 -0.0973,0.30155 -0.0585,0.270985 -0.10452,0.56642 -0.14827,0.840035 -0.0162,0.100014 0.13051,0.279408 0.0681,0.34144 -0.12427,0.123398 -0.22508,-0.03774 -0.24577,-0.147586 -0.022,-0.116217 -0.0768,-0.247251 -0.0589,-0.366166 0.0202,-0.130157 0.10836,-0.233513 0.12205,-0.366175 -0.1394,-0.0065 -0.14202,-0.172781 -0.10232,-0.279925 0.0476,-0.127917 0.28196,-0.152588 0.29767,-0.260475 0.0141,-0.106235 -0.19528,-0.135846 -0.25997,-0.175243 -0.1515,-0.0926 -0.14827,-0.263292 -0.26342,-0.377948 -0.0686,-0.06824 -0.17631,-0.0701 -0.18902,-0.177241 -0.0287,-0.0119 -0.0558,-0.02659 -0.0869,-0.03158 -0.2479,-0.03982 -0.0575,0.240918 -0.21712,0.297655 -0.1279,0.04545 -0.16965,-0.128482 -0.27784,-0.146719 -0.0741,-0.01251 -0.14262,0.04238 -0.14262,0.117871 1.9e-4,0.181477 0.22916,0.293368 0.31596,0.430466 0.0331,0.05242 0.0795,0.14688 0.0121,0.192935 -0.10737,0.07232 -0.21648,-0.116378 -0.29186,-0.16441 -0.093,-0.05915 -0.20248,-0.104455 -0.26407,-0.201145 -0.15634,-0.245617 0.0835,-0.592591 0.19951,-0.796633 -0.10771,0.05495 -0.19285,0.144096 -0.30155,0.197394 -0.13737,0.0673 -0.27721,0.05218 -0.35389,0.211882 -0.10365,0.215759 0.0297,0.474468 -0.098,0.68924 -0.13072,0.219742 -0.50423,0.536499 -0.3722,0.835986 0.0595,0.134594 0.25935,0.108169 0.37177,0.16449 0.17107,0.08559 0.32912,0.286606 0.39397,0.464197 0.10551,0.289102 -0.23006,0.411659 -0.20745,0.64534 0.008,0.08487 0.11519,0.152164 0.16341,0.21632 0.0865,0.115612 0.13495,0.248027 0.16703,0.387623 -0.0966,-0.09649 -0.18922,-0.205698 -0.30152,-0.284318 -0.0739,-0.05174 -0.17793,-0.0727 -0.20615,-0.168949 -0.0888,-0.305237 0.40083,-0.799415 -0.11701,-0.968476 -0.12567,-0.04107 -0.26471,-0.02354 -0.32331,0.108169 -0.0859,0.194084 -0.0669,0.365008 -0.21914,0.538164 -0.24461,0.278396 -0.6934,0.579215 -1.07301,0.620588 -0.34497,0.0376 -0.70492,-0.264135 -0.73233,-0.599051 0.0944,0.02221 0.23728,0.07299 0.31943,0.124003 0.0853,0.05297 0.12468,0.15267 0.24058,0.139033 0.26438,-0.03113 0.39511,-0.252595 0.58274,-0.396801 0.0805,-0.06183 0.20204,-0.08765 0.26278,-0.172359 0.0454,-0.06355 0.0161,-0.143632 0.0557,-0.208566 0.0427,-0.07026 0.13234,-0.09576 0.163,-0.175466 0.0662,-0.171834 -0.0202,-0.389262 0.052,-0.580638 0.0817,-0.216922 0.16643,-0.462555 0.27196,-0.667722 0.0545,-0.105993 0.15593,-0.18539 0.19184,-0.301548 0.0359,-0.116318 0.004,-0.246713 0.0181,-0.366169 0.0369,-0.295825 0.74549,-0.829291 0.33838,-1.120716 -0.43638,-0.312216 -0.74481,0.250373 -1.07479,0.486856 -0.10958,0.07837 -0.33578,0.119384 -0.41482,0.212421 -0.0698,0.08221 -0.0563,0.254723 -0.0995,0.356819 -0.0597,0.141352 -0.48517,0.657898 -0.15352,0.7108 -0.0222,0.09762 -0.0837,0.18063 -0.10067,0.280012 -0.029,0.170301 0.0864,0.5726 -0.22238,0.583929 -0.17692,0.0065 -0.21089,-0.338036 -0.26554,-0.454694 -0.0608,-0.129247 -0.17792,-0.218476 -0.2383,-0.344633 -0.0416,-0.0869 -0.01,-0.188093 -0.045,-0.280012 -0.0865,-0.226827 -0.2819,-0.461177 -0.46388,-0.618155 -0.0865,-0.07456 -0.28271,-0.226528 -0.39807,-0.122733 -0.0714,0.06439 -0.0462,0.184159 -0.0789,0.267002 -0.064,0.162595 -0.26304,0.233465 -0.42749,0.230946 -0.24687,-0.0038 -0.002,-0.276672 -0.13879,-0.347175 -0.10749,-0.05546 -0.27875,-0.007 -0.39985,-0.04742 -0.15089,-0.05019 -0.24722,-0.199087 -0.40923,-0.219958 -0.15654,-0.02017 -0.47285,0.04141 -0.47789,-0.219466 -0.004,-0.125598 0.15351,-0.230385 0.19789,-0.34463 -0.13798,0 -0.33781,0.09996 -0.4523,0.07946 -0.12607,-0.02257 -0.23887,-0.158034 -0.36617,-0.201023 -0.310034,-0.10474 -0.648504,-0.09977 -0.969284,-0.06861 -0.233663,0.02267 -0.52166,0.160578 -0.681847,-0.09067 -0.136778,-0.21464 -0.03253,-0.607949 0.247397,-0.645386 0.107048,-0.01412 0.226549,0.111839 0.3219,0.0629 0.14258,-0.07313 0.24506,-0.482763 0.0685,-0.558022 -0.185989,-0.0793 -0.312205,0.128683 -0.429914,0.232732 -0.120489,0.106554 -0.294173,0.118355 -0.40631,0.224292 -0.197104,0.186257 -0.174936,0.528965 -0.54134,0.511001 -0.294745,-0.01432 -0.07825,-0.258948 -0.241012,-0.390986 -0.208425,-0.16907 -0.621538,-0.197272 -0.879036,-0.189222 -0.248727,0.0079 -0.287194,0.557658 -0.538461,0.447201 -0.208719,-0.09175 -0.258152,-0.377069 -0.258489,-0.576761 -1.5e-4,-0.08747 0.0262,-0.266697 -0.08907,-0.29429 -0.09824,-0.02346 -0.167274,0.05709 -0.186923,0.143531 -0.03835,0.168768 -0.0113,0.431799 -0.219478,0.499995 -0.22569,0.07367 -0.244401,-0.289191 -0.43078,-0.327704 0.03966,-0.0957 0.102904,-0.177925 0.12836,-0.280011 0.04752,-0.191744 0.02115,-0.366988 0.143894,-0.53848 0.08307,-0.115995 0.203127,-0.228861 0.330903,-0.293432 0.09878,-0.04991 0.216821,-0.06647 0.286406,-0.161163 0.08531,-0.115995 0.05838,-0.293168 0.09055,-0.428524 0.0376,-0.157874 0.110023,-0.340191 0.20275,-0.473759 0.02825,-0.04054 0.08402,-0.119162 0.143329,-0.08796 0.101597,0.0536 0.06548,0.473583 0.08009,0.58326 0.07221,0.549386 0.284381,1.649514 1.049357,1.442821 0.143888,-0.03885 0.363095,-0.09719 0.458713,-0.21966 0.116192,-0.148857 0.100454,-0.461698 0.101443,-0.641593 0.0033,-0.488667 0.09144,-1.027688 -0.04154,-1.507758 -0.03946,-0.142481 -0.200698,-0.217763 -0.231318,-0.345794 -0.0477,-0.199309 0.241595,-0.358391 0.138272,-0.53646 -0.07089,-0.122107 -0.183564,-0.109477 -0.296294,-0.160618 -0.179432,-0.08134 -0.308857,-0.213131 -0.516963,-0.225927 -0.164463,-0.01011 -0.41607,0.01856 -0.509028,0.171228 -0.09957,0.163523 -0.07265,0.380298 -0.245954,0.500876 -0.175506,0.122228 -0.420209,0.04141 -0.602266,0.162736 -0.206267,0.13752 -0.28564,0.384024 -0.474171,0.53316 -0.139013,0.109923 -0.343268,0.103553 -0.495088,0.204607 -0.137903,0.09175 -0.150067,0.236953 -0.261633,0.335516 -0.05576,0.04921 -0.12705,0.03972 -0.18761,0.07531 -0.06885,0.04041 -0.0898,0.127675 -0.15511,0.17488 -0.07072,0.05124 -0.162776,0.06017 -0.231695,0.115268 -0.237721,0.190091 0.0113,0.464929 -0.262457,0.624387 -0.575734,0.334872 -1.428032,-0.06256 -2.024683,-0.142945 0.01311,0.132617 -0.07577,0.146093 -0.100278,0.259658 -0.02675,0.124367 0.119,0.484464 -0.01876,0.56054 -0.08176,0.04527 -0.159972,-0.124569 -0.192329,-0.174013 -0.116379,-0.177765 -0.253346,-0.251942 -0.464404,-0.234929 -0.270295,0.02183 -0.588305,0.211172 -0.796951,0.375324 -0.10907,0.08581 -0.188335,0.201508 -0.323099,0.247317 l 0.02152,-0.236935 c -0.335672,0.0967 -0.533933,0.429948 -0.758463,0.665373 -0.07952,0.08344 -0.263168,0.09899 -0.263411,0.239343 -1.7e-4,0.09965 0.0902,0.152549 0.122935,0.237711 0.03387,0.08791 0.0056,0.187467 0.02076,0.278333 0.0262,0.147828 0.132093,0.220735 0.0913,0.388548 -0.05874,0.242016 -0.417795,0.34814 -0.55502,0.560026 -0.124427,0.192148 -0.211601,0.421823 -0.256132,0.64618 -0.01675,0.08217 0.01674,0.2225 -0.02171,0.292226 -0.09243,0.166851 -0.420863,0.03663 -0.494527,-0.07717 -0.03649,-0.05618 -0.05071,-0.159428 -0.128179,-0.175606 -0.164471,-0.0344 -0.477221,0.372654 -0.53616,0.499025 0.260923,0.183777 0.773243,0.566894 0.524445,0.926195 -0.07427,0.1073 -0.356367,0.208115 -0.373711,0.324036 -0.02582,0.172298 0.253008,0.279798 0.162232,0.472921 -0.121624,0.258513 -0.419591,0.414932 -0.348584,0.753554 0.04303,0.205699 0.302256,0.130036 0.413192,0.263705 0.0797,0.09602 0.02078,0.286692 0.03817,0.404337 0.04604,0.311459 0.361512,0.674202 0.130237,0.989863 -0.15043,0.205464 -0.49419,0.352274 -0.697559,0.504169 -0.06679,0.04996 -0.190675,0.12239 -0.27825,0.101949 -0.07746,-0.01816 -0.113755,-0.109719 -0.175505,-0.153497 -0.170644,-0.120997 -0.415848,-0.16092 -0.600861,-0.06395 0.05913,0.07161 0.143691,0.11781 0.197009,0.19471 0.07914,0.113978 0.05278,0.263523 -0.110951,0.21219 -0.173831,-0.05452 -0.340556,-0.155655 -0.452315,-0.299205 -0.177947,0.06393 -0.15961,0.291489 -0.172319,0.452322 l -0.366173,-0.119888 -0.344633,0.10296 -0.409244,-0.370777 c 8.8e-4,0.380042 0.04715,0.762021 0.06381,1.141585 0.01311,0.296429 -0.0113,0.642182 0.08924,0.926199 0.04622,0.131063 0.161848,0.206466 0.229675,0.323083 0.08868,0.152366 0.0827,0.354132 0.161284,0.516943 0.08176,0.169434 0.242942,0.288572 0.315184,0.452424 0.09617,0.217996 0.05221,0.474529 0.158297,0.689081 0.09767,0.197593 0.344842,0.241347 0.430705,0.452412 0.09748,0.239371 0.0075,0.525046 0.04211,0.775425 0.02359,0.172137 0.140323,0.312809 0.16203,0.495395 0.02096,0.174477 -0.01674,0.366825 0.101234,0.516087 0.116761,0.146476 0.455159,0.239524 0.56952,0.04301 0.156603,-0.269245 0.0277,-0.706601 0.248424,-0.941956 0.160719,-0.171229 0.59463,0.02844 0.637703,-0.241847 -0.111132,0.02028 -0.356049,0.01715 -0.35906,-0.150874 -0.0019,-0.09927 0.100278,-0.21615 0.115632,-0.323012 0.01956,-0.135784 -0.03255,-0.325439 0.115268,-0.40539 0.08963,-0.04851 0.203705,-0.01412 0.300364,-0.03353 0.197756,-0.03956 0.346694,-0.193702 0.560035,-0.154062 0.325175,0.06044 0.674545,0.303249 1.012351,0.140686 -0.06343,-0.09124 -0.16784,-0.180286 -0.161284,-0.301527 0.0075,-0.150511 0.134353,-0.135725 0.213154,-0.224681 0.07055,-0.07963 0.09168,-0.296013 0.09655,-0.399981 0.0113,-0.232653 -0.203988,-0.285616 -0.270692,-0.473553 -0.03817,-0.107499 0.118254,-0.134837 0.148191,-0.219697 0.029,-0.08257 -0.04846,-0.154262 -0.05838,-0.232947 -0.01674,-0.130379 0.109455,-0.254558 0.204659,-0.323087 0.07579,0.123479 0.202563,0.07218 0.297578,-0.0115 0.08943,-0.07867 0.10496,-0.199674 0.184866,-0.282833 0.131729,-0.137055 0.438188,-0.165721 0.616148,-0.129167 0.331499,0.06809 -0.03163,0.546972 0.280269,0.585979 0.206288,0.02578 0.218954,-0.378207 0.452072,-0.41793 0.264105,-0.04505 0.387166,0.04751 0.625487,0.09716 0.159043,0.03313 0.341958,-0.06929 0.494152,-0.01553 0.136773,0.04831 0.09431,0.204406 0.186741,0.287009 0.08513,0.07603 0.215081,-4.26e-4 0.304127,0.07094 0.112263,0.09011 0.03554,0.241265 0.09487,0.353337 0.05669,0.107224 0.189606,0.140243 0.235344,0.25941 0.0784,0.204041 -0.01493,0.45653 0.01937,0.667705 0.04416,-0.03557 0.08272,-0.08745 0.131164,-0.116802 0.07857,-0.04769 0.133787,0.02415 0.156422,0.09532 0.04583,0.144197 -0.01311,0.335276 0.144257,0.424729 0.180568,0.102135 0.416428,-0.02825 0.580297,0.08479 0.08794,0.06054 0.146315,0.152629 0.237348,0.21074 0.100662,0.06421 0.21581,0.08297 0.290411,0.184764 0.105345,0.143794 0.06848,0.357914 0.211994,0.482654 0.09485,0.08246 0.232632,0.04535 0.337545,0.118819 0.123115,0.08612 0.351109,0.403107 0.531631,0.262671 0.0797,-0.06187 0.05239,-0.217915 0.04079,-0.304524 -0.03313,-0.24938 -0.0769,-0.502082 -0.07708,-0.753878 0.05894,0.03353 0.112828,0.07583 0.172318,0.108367 0.349294,0.190675 0.251774,-0.298949 0.495407,-0.374292 0.162861,-0.05035 0.296034,0.06983 0.431053,0.136692 -0.07265,-0.160859 -0.205578,-0.639717 0.0655,-0.717093 0.114697,-0.03272 0.231208,0.110064 0.322144,0.158883 0.186916,0.100399 0.442227,0.1142 0.646201,0.177866 0.521766,0.162857 1.049433,0.328018 1.593894,0.395758 0.25022,0.03119 0.49523,-0.05329 0.73234,-0.02794 0.153064,0.01654 0.255544,0.16913 0.387724,0.235231 0.0837,0.0419 0.20112,0.03752 0.27398,0.09479 0.26079,0.204817 -0.14141,0.594378 -0.0667,0.80157 0.0507,0.140909 0.2226,0.08725 0.32801,0.144238 0.091,0.04923 0.0224,0.144943 0.0813,0.210739 0.10045,0.112424 0.58308,0.191563 0.30979,0.399835 0.10375,0.19816 0.53663,0.236937 0.73232,0.176635 0.0999,-0.03098 0.1743,-0.112444 0.28001,-0.129026 0.18377,-0.02885 0.38635,0.02649 0.56001,0.08166 v 0.02151 c -0.0987,0.03793 -0.29294,0.07389 -0.26968,0.215397 0.0297,0.181134 0.24882,0.285616 0.31585,0.452332 0.0438,0.108971 0.041,0.250287 0.0696,0.36617 0.0869,0.352593 0.18398,0.71079 0.1858,1.076962 8.7e-4,0.145184 -0.0577,0.558735 0.092,0.64511 0.17107,0.09866 0.14929,-0.25309 0.3171,-0.210872 0.22455,0.05646 0.28606,0.390724 0.4954,0.495406 0.17106,0.08552 0.2501,-0.03385 0.40924,-0.05535 0.13758,-0.01856 0.32281,0.09153 0.42993,0.167356 0.21724,0.153778 0.0942,0.343336 0.21815,0.525992 0.0543,0.0797 0.15009,0.112001 0.20317,0.198583 0.0758,0.123641 0.0816,0.304575 0.20644,0.393528 0.15756,0.112424 0.4031,0.08277 0.57931,0.185451 0.13073,0.07625 0.25198,0.274639 0.40924,0.288203 0.0823,0.007 0.17792,-0.03699 0.25847,-0.05302 0.18882,-0.03702 0.46697,-0.03211 0.62141,-0.160456 0.0731,-0.06076 0.0285,-0.170381 0.097,-0.219056 0.0853,-0.06054 0.27654,-0.03732 0.37995,-0.05689 0.2923,-0.05513 0.65371,-0.294453 0.94773,-0.266239 0.0932,0.0091 0.16703,0.08053 0.25847,0.101212 0.1513,0.03403 0.33861,-0.03344 0.473,0.04761 0.14767,0.08898 0.17854,0.306715 0.30436,0.424749 0.10166,0.0954 0.18155,0.05473 0.29961,0.08787 0.2617,0.07349 0.54086,0.285402 0.8185,0.12126 0.11356,-0.06717 0.31554,-0.227668 0.30348,-0.377363 -0.0142,-0.177482 -0.13799,-0.274197 -0.0952,-0.473868 0.0522,-0.245555 0.22252,-0.409469 0.33496,-0.62464 0.0657,-0.126002 0.0645,-0.263427 0.12447,-0.387708 0.23648,0.537401 0.89428,0.475367 1.31389,0.747414 0.32715,0.211942 0.3737,0.667289 0.7754,0.838529 0.18761,0.08013 0.4097,-0.05341 0.58157,-0.124285 0.21043,-0.08685 0.44028,-0.125355 0.66773,-0.101003 0.227,0.02457 0.29122,0.182424 0.47407,0.269235 0.10166,0.04801 0.21712,-0.01412 0.32287,0.02885 0.13959,0.05647 0.22357,0.199452 0.36617,0.255242 0.25137,0.09846 0.57554,0.0431 0.84005,0.04607 0.10353,0.001 0.22229,0.05046 0.32309,0.02711 0.12769,-0.02945 0.21452,-0.148614 0.32309,-0.21345 0.15977,-0.0952 0.40236,-0.09846 0.53396,-0.227669 0.0717,-0.07063 0.0944,-0.172762 0.1509,-0.25373 0.118,-0.168667 0.32502,-0.320509 0.52125,-0.385345 0.19931,-0.06597 0.34573,0.116096 0.53849,0.120635 0.22013,0.0051 0.31555,-0.154868 0.56002,-0.0793 0.15069,0.04648 0.45856,0.236505 0.59945,0.121704 0.5137,-0.418522 0.35839,-0.930939 0.46589,-1.500864 0.0444,-0.23564 0.18943,-0.392877 0.15856,-0.64618 -0.0244,-0.198805 -0.33709,-0.346783 -0.30286,-0.516955 0.041,-0.202462 0.33883,-0.312961 0.47709,-0.440262 0.0654,-0.06034 0.10112,-0.156159 0.17693,-0.2029 0.17288,-0.10641 0.4896,-0.08144 0.68646,-0.08999 0.28174,-0.01251 0.60503,-0.09847 0.8831,-0.02223 0.14948,0.04097 0.24966,0.152286 0.36617,0.246627 0.0901,0.07319 0.23222,0.112 0.30803,0.194932 0.1747,0.191059 0.29918,0.425612 0.48895,0.615375 -0.11236,0.01513 -0.27723,0.03078 -0.34464,0.129229 0.3961,0.108344 0.67913,0.463964 1.07699,0.548827 0.15855,0.03385 0.27763,-0.05208 0.43076,-0.06381 0.23887,-0.01835 0.61261,-0.0051 0.84006,0.07176 0.31036,0.105542 0.35539,0.664272 0.75386,0.601381 0.33451,-0.05281 0.39741,-0.371991 0.58371,-0.576613 0.10122,-0.110932 0.26557,-0.174255 0.34421,-0.301984 0.0575,-0.09346 0.1642,-0.441986 0.31532,-0.416789 0.049,0.0082 0.0609,0.07666 0.0666,0.115671 0.0285,0.186763 0.16523,0.309308 0.1985,0.473872 0.0236,0.116539 -0.10243,0.209361 -0.0722,0.344631 0.0553,0.245976 0.25803,0.458355 0.28797,0.710792 0.0162,0.134191 -0.12084,0.225732 -0.10386,0.36617 0.0214,0.175546 0.13717,0.313187 0.0448,0.495405 -0.0997,0.196647 -0.26878,0.131609 -0.43746,0.194509 -0.13939,0.05208 -0.25976,0.262997 -0.27074,0.408605 -0.01,0.13419 0.12024,0.258258 0.18439,0.366168 0.12769,0.215825 0.35323,0.646395 0.31749,0.90465 -0.0162,0.124065 -0.15615,0.174679 -0.20958,0.280008 0.37479,-2.1e-4 0.39589,-0.400191 0.40922,-0.710788 0.221,0.04117 0.51115,0.111355 0.73237,0.04761 0.39567,-0.11416 0.66491,-0.69163 0.75602,-1.059961 0.0512,-0.206774 -0.0246,-0.428195 0.0478,-0.624631 0.25934,-0.701967 0.13396,-1.567425 0.16643,-2.304719 0.0216,-0.490666 0.1043,-1.07266 -0.0391,-1.550829 -0.14101,-0.470445 -0.50854,-0.810683 -0.69701,-1.249285 -0.0681,-0.158438 -0.13093,-0.344011 -0.14384,-0.516944 -0.0121,-0.138992 0.0321,-0.235984 -0.0456,-0.366168 -0.11639,-0.195456 -0.3767,-0.537922 -0.56604,-0.662876 -0.14384,-0.09511 -0.34762,-0.115187 -0.51242,-0.153052 -0.17611,-0.04047 -0.4269,-0.102575 -0.56907,0.05199 -0.12022,0.130862 0.0874,0.20244 0.0785,0.333145 -0.008,0.123964 -0.14222,0.125597 -0.20764,0.200621 -0.0401,0.04607 -0.0452,0.112403 -0.0893,0.156139 -0.17127,0.168324 -0.30067,-0.403182 -0.38663,-0.07757 -0.008,0.02844 -0.008,0.0579 -0.0121,0.08705 -0.14605,-0.06809 -0.23174,-0.254934 -0.3877,-0.298487 -0.16904,-0.04718 -0.52598,0.253669 -0.63282,-0.04658 -0.0495,-0.138608 0.0891,-0.248644 0.13173,-0.365753 0.0741,-0.203896 0.12124,-0.494763 0.16481,-0.7108 0.0657,-0.327876 0.0222,-0.662009 0.0625,-0.990812 0.0214,-0.175061 0.0973,-0.325592 0.13536,-0.495407 0.0686,-0.304851 0.10309,-0.640644 0.15291,-0.947736 0.0384,-0.236565 -0.079,-0.431431 0.0313,-0.667719 0.14968,-0.320847 0.62722,-0.897933 1.00976,-0.796953 0.008,-0.323823 0.32374,-0.362961 0.51285,-0.562026 0.15252,-0.160214 0.12104,-0.457887 0.30759,-0.579369 0.0924,-0.06007 0.20031,-0.01066 0.29034,-0.05626 0.0825,-0.04176 0.0401,-0.170502 0.14082,-0.206024 0.18478,-0.06526 0.46006,3.86e-4 0.63883,-0.07432 0.0712,-0.0297 0.0949,-0.142442 0.13536,-0.202079 0.11378,-0.166851 0.30544,-0.273725 0.36489,-0.47387 l -0.0215,-0.02154 c -0.0838,0.02814 -0.224,0.185209 -0.30844,0.159186 -0.18821,-0.05798 -0.24835,-0.537059 -0.27484,-0.697682 -0.10485,-0.63347 -0.43293,-1.264422 0.0925,-1.782854 0.10738,-0.105971 0.18338,-0.132072 0.27484,-0.259248 0.0215,-0.02972 0.0498,-0.04619 0.0869,-0.03651 0.11076,0.02883 0.39505,0.500814 0.53741,0.33862 0.0729,-0.08291 -0.004,-0.296897 -0.0142,-0.392403 -0.0266,-0.206112 -0.004,-0.428956 -0.0809,-0.624643 -0.0645,-0.165076 -0.2173,-0.28335 -0.26687,-0.452325 -0.0422,-0.143834 0.1065,-0.404122 0.25483,-0.439125 0.10287,-0.02429 0.12224,0.110892 0.13072,0.18065 0.051,0.410626 0.44994,0.552052 0.63347,0.88311 0.1087,0.196303 -0.10957,0.433782 -0.0437,0.66772 0.0495,0.17601 0.14484,0.354755 0.15897,0.538485 0.008,0.10341 -0.0831,0.201407 -0.062,0.297889 0.0534,0.243309 0.24746,0.458103 0.32331,0.692923 0.13435,0.41627 0.0142,0.748711 -0.0852,1.141587 0.33193,0.175908 0.25913,0.636894 0.46677,0.904651 0.59426,0.767298 1.3964,1.259925 2.18257,1.795178 0.19791,0.134776 0.47109,0.537234 0.73191,0.522158 0.15412,-0.0089 0.15553,-0.201003 0.15048,-0.314174 -0.0141,-0.299592 -0.16622,-0.651931 -0.3207,-0.904629 -0.0502,-0.08212 -0.19064,-0.152689 -0.21303,-0.239822 -0.0563,-0.219529 0.23929,-0.449698 0.0731,-0.662939 -0.19064,-0.244319 -0.33665,-0.330758 -0.31188,-0.669635 0.0121,-0.174678 0.2113,-0.393549 0.12346,-0.559078 -0.0659,-0.124286 -0.20915,-0.111013 -0.3192,-0.166549 -0.17267,-0.08717 -0.34269,-0.293626 -0.39547,-0.480585 -0.0696,-0.246757 0.31857,-0.260221 0.19467,-0.469818 -0.13697,-0.231937 -0.56367,-0.07934 -0.76721,-0.233485 -0.10672,-0.08075 -0.0313,-0.294207 -0.15433,-0.323329 -0.19548,-0.04624 -0.13496,0.288864 -0.32069,0.206433 -0.32075,-0.142221 -0.50166,-0.664681 -0.67678,-0.946032 -0.0783,-0.125315 -0.16502,-0.254941 -0.16059,-0.409246 0.007,-0.19469 0.15958,-0.189002 0.2212,-0.327934 0.0726,-0.164149 -0.008,-0.443198 -0.008,-0.619799 0.0507,0.02465 0.14303,0.100135 0.19689,0.05037 0.072,-0.06645 0.0374,-0.241928 0.0495,-0.330387 0.0311,-0.22918 0.0797,-0.466027 0.24104,-0.642434 0.085,-0.09284 0.3888,-0.117669 0.40689,-0.222006 0.0202,-0.111395 -0.0502,-0.25703 -0.0783,-0.363306 -0.0698,-0.26584 -0.12528,-0.533681 -0.20548,-0.796957 -0.13637,-0.44815 -0.0925,-0.921326 -0.16401,-1.378524 -0.0208,-0.131487 -0.14907,-0.216554 -0.16522,-0.324377 -0.0121,-0.09008 0.11297,-0.103652 0.17107,-0.127494 0.12628,-0.05201 0.42993,-0.299225 0.32245,-0.465292 -0.15815,-0.24389 -0.60634,-0.01695 -0.7944,-0.0031 -0.10265,0.0075 -0.22851,-0.138749 -0.34655,-0.15275 -0.1295,-0.01533 -0.15371,0.06676 -0.25935,0.109279 -0.19708,0.07934 -0.31403,0.125838 -0.49454,0.25289 -0.11821,-0.313765 0.2152,-0.318268 0.32374,-0.560022 0.10573,-0.235686 -0.07,-0.721137 -0.30218,-0.836094 -0.10211,-0.05044 -0.21606,0.002 -0.32309,-0.056 -0.11459,-0.06225 -0.24513,-0.200661 -0.15634,-0.334613 0.12143,-0.182849 0.39546,0.138305 0.60633,0.04761 0.14828,-0.06371 0.14121,-0.433707 0.26473,-0.564383 0.14585,-0.154505 0.21926,-0.0038 0.38384,-0.03218 0.21215,-0.03659 0.49452,-0.386979 0.51693,-0.593686 0.0773,-0.0121 0.22831,-0.140021 0.0985,-0.202081 -0.0569,-0.02705 -0.14584,0.0036 -0.20613,0.0082 0.13536,-0.285751 -0.44844,-0.133405 -0.5654,-0.295135 -0.0543,-0.07502 0.0944,-0.147062 0.0968,-0.222657 0.002,-0.07155 -0.0698,-0.129107 -0.094,-0.193015 -0.0425,-0.112645 -0.0339,-0.248499 -0.0623,-0.366168 -0.18296,0.03544 -0.33022,0.189465 -0.4954,0.272031 -0.0867,0.04337 -0.20571,0.06411 -0.2699,0.142058 -0.0573,0.06982 -0.0314,0.173286 -0.0712,0.253636 -0.0396,0.07939 -0.16218,0.163683 -0.16199,0.255278 0,0.101025 0.49886,0.07811 0.35971,0.249534 -0.20612,0.253568 -0.99748,-0.281489 -0.9335,0.227525 m -2.75705,0.323091 c 0.0379,-0.10163 0.0567,-0.194044 0.0684,-0.301553 0.008,-0.0725 0.0162,-0.14222 0.0181,-0.215393 8.6e-4,-0.224637 -0.14505,-0.333508 -0.30134,-0.103707 -0.11983,0.176494 0.0161,0.563516 0.2152,0.620656 m -21.60401,0.04307 c 0.0569,0.189586 0.24038,0.232012 0.40925,0.150773 v -0.04307 c -0.12588,-0.08234 -0.25739,-0.140707 -0.40925,-0.107708 m 0.0645,0.387706 c 0.14888,0.110829 0.44782,0.159971 0.62466,0.107707 -0.0807,-0.224696 -0.44329,-0.162816 -0.62466,-0.107707 m 1.20622,0.36617 c 0.03,0.103828 0.0908,0.125879 0.19386,0.129228 -0.0307,-0.08956 -0.10693,-0.108576 -0.19386,-0.129228 m 0.30478,0.474794 c -0.15009,0.08368 10e-4,0.311844 0.14625,0.235316 0.17249,-0.09106 -8.4e-4,-0.316323 -0.14625,-0.235316 m 0.51502,0.122753 c -0.15412,0.0655 0.0232,0.168142 0.12708,0.127069 0.18136,-0.07183 -0.01,-0.177079 -0.12708,-0.127069 m 3.98346,1.017903 c -0.0968,0.150734 -0.2507,0.153537 -0.35774,0.2812 -0.38233,0.456268 0.38812,0.661257 0.51457,0.214212 0.0258,-0.09183 0.004,-0.190453 -0.0222,-0.280014 -0.0254,-0.09171 -0.0486,-0.16915 -0.13475,-0.215398 m 14.90523,0.215398 c 0.18802,0.142462 0.3302,-0.143289 0.0869,-0.04593 -0.0309,0.01231 -0.0581,0.02958 -0.0869,0.04593 m -14.73291,0.581562 c -0.0976,0.0087 -0.17652,0.03926 -0.25848,0.09399 -0.3259,0.217613 -0.28172,0.583672 0.0645,0.750671 0.10606,0.05124 0.33687,0.161324 0.43638,0.04892 0.0632,-0.07133 0.0325,-0.202837 0.0521,-0.290482 0.0222,-0.09877 0.0708,-0.197131 0.0408,-0.300605 -0.0553,-0.189545 -0.22916,-0.02112 -0.3205,-0.104069 -0.0434,-0.03934 -0.0161,-0.146316 -0.0142,-0.198423 m -0.84002,0.04307 c 0.0384,0.344069 0.40537,0.07992 0.10814,0.0085 -0.0355,-0.0087 -0.072,-0.0077 -0.10814,-0.0085 m 10.33889,0.129228 c -0.11015,0.0091 -0.21605,0.04065 -0.32309,0.06736 -0.0785,0.01956 -0.15896,0.03101 -0.23693,0.0515 -0.0823,0.02163 -0.33518,0.167476 -0.18701,0.268251 0.24081,0.163703 0.69312,-0.158217 0.74697,-0.387108 m -9.21883,1.313902 c 0.23433,-0.04838 0.48377,-0.104839 0.7108,-0.180064 0.0851,-0.02815 0.19003,-0.07085 0.21884,-0.164894 0.0686,-0.222308 -0.22338,-0.303663 -0.34335,-0.39943 -0.0483,-0.03851 -0.0914,-0.156159 -0.17107,-0.11426 -0.0729,0.03837 -0.0881,0.185088 -0.11498,0.255544 -0.0804,0.21033 -0.21151,0.397316 -0.30026,0.603101 m 7.34493,-0.818494 c 0.01,0.0815 0.14082,0.228078 0.10694,0.293838 -0.0345,0.06727 -0.14463,0.01714 -0.19305,-0.002 -0.18821,-0.07528 -0.44006,-0.149745 -0.42258,0.160537 0.0121,0.203543 0.11679,0.440244 0.29355,0.549708 0.19044,0.11771 0.45321,0.115955 0.36598,-0.162009 0.21752,-0.06173 0.43787,-0.164955 0.60307,-0.323091 -0.16259,-0.09501 -0.34417,-0.17498 -0.40922,-0.366169 0.0906,0.102619 0.17832,0.197313 0.32309,0.211063 0.12386,0.01171 0.26364,-0.06794 0.22724,-0.210201 -0.0751,-0.294141 -0.69034,-0.189627 -0.89495,-0.15164 m -16.08991,0.990807 c 0.0142,0.09593 0.0782,0.336962 0.21571,0.306896 0.0997,-0.02178 0.16945,-0.141877 0.25814,-0.190211 0.16684,-0.091 0.42273,-0.176231 0.6031,-0.235839 0.48861,-0.161444 1.05273,-0.145508 1.55084,-0.139395 0.21712,0.0026 0.43315,-0.01835 0.64618,-0.06029 0.0672,-0.01311 0.17127,-0.02241 0.21475,-0.08289 0.0835,-0.115692 -0.0381,-0.246281 -0.15009,-0.261896 -0.2936,-0.04085 -0.59361,0.09863 -0.88311,-8.68e-4 -0.45971,-0.157975 -1.01574,-0.201865 -1.48256,0.01513 -0.22693,0.105466 -0.41734,0.316265 -0.63281,0.426288 -0.0575,0.02931 -0.1275,4.29e-4 -0.18236,0.03392 -0.073,0.04438 -0.073,0.141715 -0.15755,0.189162 M 85.6948,78.060431 c 0.09431,0.161749 0.263468,0.09264 0.409151,0.16312 0.193077,0.0934 0.200782,0.454831 0.43091,0.476888 0.17607,0.01674 0.224138,-0.209279 0.242736,-0.338455 0.01311,-0.09255 0.03909,-0.234306 -0.03948,-0.307104 -0.04866,-0.04508 -0.123117,-0.03613 -0.169514,-0.08743 -0.08477,-0.0939 -0.08364,-0.2435 -0.24904,-0.2435 -0.237011,0 -0.142946,0.245937 -0.267828,0.340105 -0.07729,0.05828 -0.262831,-0.0036 -0.356816,-0.0036 m 16.822031,2.412516 c 0.007,-0.312795 0.0203,-0.772336 0.20756,-1.033892 0.11176,-0.155937 0.27404,-0.294505 0.41672,-0.421654 0.0603,-0.05366 0.16139,-0.133707 0.15917,-0.224201 -0.002,-0.08045 -0.0983,-0.137924 -0.15876,-0.174113 -0.31807,-0.189728 -0.51289,0.183917 -0.77541,0.298972 -0.11679,0.05114 -0.25908,-0.0048 -0.3616,0.07977 -0.23622,0.195134 0.11237,0.291986 0.16421,0.484332 0.0454,0.16786 -0.0686,0.255826 -0.0736,0.409247 -0.008,0.193741 0.27786,0.477985 0.42187,0.581567 m 17.53303,-1.70161 c 0.21475,0.06153 0.14706,-0.192713 0,0 m 0.45276,-0.029 c -0.26838,0.08666 -0.13153,0.457409 0.15049,0.365886 0.091,-0.0295 0.33084,-0.107565 0.33084,-0.227777 0,-0.162838 -0.37911,-0.171129 -0.48119,-0.138106 m -20.22596,1.077052 c -0.23234,0.0579 -0.305544,0.431459 -0.0215,0.358567 0.19487,-0.04999 0.26272,-0.418664 0.0215,-0.358567 m 5.88138,0.498185 c -0.13376,0.04797 -0.0285,0.199995 0.0783,0.161686 0.10166,-0.03653 0.0321,-0.201044 -0.0783,-0.161686 m 8.6778,0.36757 c -0.0879,-8.67e-4 -0.18095,0.147949 -0.0601,0.161263 0.0976,0.01066 0.18156,-0.160194 0.0601,-0.161263 m -12.1467,0.218587 c -0.0555,0.174819 -0.0656,0.351028 0.0215,0.516945 0.14545,-0.09439 0.16461,-0.458163 -0.0215,-0.516945 m 26.77342,4.243255 c 0.10474,0.0079 0.14263,-0.02459 0.15089,-0.129228 -0.085,0.01714 -0.12568,0.04523 -0.15089,0.129228 m 5.64332,3.467838 c 0.31103,-0.170583 0.0958,-0.482787 0.15089,-0.732341 l -0.0215,-0.02161 c -0.39463,0.103003 -0.1293,0.480391 -0.1293,0.753877 m 0.13939,0.410245 c -0.0744,0.05218 0.0162,0.167214 0.0845,0.109943 0.0674,-0.05626 -0.0121,-0.161042 -0.0845,-0.109943 m 0.0546,0.537492 c 0.0351,0.315898 0.35088,0.01936 0,0 m -2.36934,6.311041 c -0.004,-0.115026 -0.0773,-0.213461 -0.0768,-0.323095 4.3e-4,-0.205491 0.23973,-0.36186 0.42153,-0.366171 l -0.12931,0.172318 c 0.31274,0.09215 0.30435,-0.266006 0.1271,-0.42583 -0.0918,-0.08267 -0.19105,-0.03964 -0.2994,-0.06809 -0.15916,-0.04178 -0.47279,-0.17016 -0.60309,-0.269021 -0.30286,-0.230257 -0.46137,-0.716836 -0.56607,-1.067922 -0.0377,-0.126787 -0.10628,-0.311636 -0.007,-0.42594 0.16218,-0.185128 0.59018,-0.112546 0.80922,-0.112546 -0.18438,-0.139516 -0.42862,-0.218534 -0.62464,-0.352033 -0.28904,-0.196868 -0.54387,-0.440006 -0.81848,-0.65577 -0.11055,-0.08685 -0.25676,-0.14216 -0.35973,-0.231978 -0.0555,-0.04851 -0.077,-0.121462 -0.13697,-0.168102 -0.11902,-0.09253 -0.26882,-0.13881 -0.38641,-0.2362 -0.0867,-0.07155 -0.20441,-0.176615 -0.22209,-0.294461 -0.0121,-0.08714 0.0519,-0.167174 0.004,-0.251992 -0.0569,-0.09816 -0.18297,-0.128018 -0.27593,-0.17849 -0.12285,-0.06695 -0.13253,-0.182728 -0.22162,-0.275482 -0.10672,-0.111053 -0.24643,-0.144843 -0.3358,-0.284863 -0.048,-0.07533 -0.10771,-0.299641 -0.23737,-0.252956 -0.0795,0.02852 -0.10166,0.140807 -0.0539,0.203981 0.0912,0.119949 0.21951,0.147787 0.27658,0.307447 0.071,0.198764 -0.0829,0.263191 -0.0767,0.430793 0.004,0.09448 0.10858,0.181557 0.15472,0.258462 0.0686,0.114744 0.0718,0.255966 0.14606,0.365333 0.13212,0.194024 0.25932,0.430662 0.45557,0.565718 0.13999,0.09633 0.32847,0.08531 0.44521,0.212807 0.12527,0.136693 0.1868,0.335795 0.28303,0.493144 0.24058,0.392723 0.48441,0.802557 0.73857,1.184661 0.15372,0.230898 0.44006,0.329983 0.58502,0.560029 0.0918,0.145811 0.11842,0.340748 0.20699,0.495394 0.0512,0.08958 0.17067,0.171249 0.2033,0.262996 0.1043,0.291866 0.19649,0.659331 0.5749,0.727826 m -5.96713,-5.126571 c 0.0162,0.0849 0.0454,0.12586 0.1293,0.150773 -0.004,-0.101728 -0.0238,-0.142563 -0.1293,-0.150773 m 8.70191,0.387699 v 0.258482 h 0.0215 l -0.0215,-0.258482 m -0.28002,1.637 c 0.14302,-0.09449 0.16562,-0.363673 0.1293,-0.516953 -0.18437,0.05822 -0.1293,0.363439 -0.1293,0.516953 m -0.22594,0.345643 c -0.0582,0.03904 -0.0551,0.136127 -0.0913,0.192006 -0.1523,0.232818 -0.22099,0.376915 -0.22099,0.668555 0,0.06768 -0.01,0.426908 0.14262,0.342694 0.0717,-0.03964 0.092,-0.161544 0.0925,-0.234997 0.002,-0.322227 0.14201,-0.551832 0.18518,-0.861465 0.01,-0.0637 -0.0263,-0.161424 -0.10793,-0.106773 m -0.52792,2.088301 c 0.19467,-0.104697 0.19387,-0.494751 0.19387,-0.689254 -0.29487,0.03293 -0.27248,0.479035 -0.19387,0.689254 m -2.45547,0 v 0.193862 h 0.0215 l 0.0215,-0.193862 z"
       id="path668" /><path
       style="fill:#ffffff;stroke:none;stroke-width:0.145024"
       d="m 79.92061,64.889532 c -1.364987,0 -4.88379,-0.625386 -5.844038,0.492196 -0.58668,0.682929 -0.391992,1.86849 -0.391992,2.698318 v 6.526059 25.814225 10.15167 c 0,1.09508 -0.224187,2.90135 1.305337,3.02752 1.514707,0.12491 3.495978,-1.29058 4.930693,-1.7706 3.537899,-1.18384 7.14869,-2.16347 10.876778,-2.53764 4.135924,-0.41519 8.338712,-0.49727 12.472042,0.0172 2.42365,0.30165 4.97184,1.24575 7.39619,1.26301 2.52734,0.0181 5.16678,-0.94976 7.68627,-1.26316 3.74322,-0.46581 7.55546,-0.43667 11.31186,-0.1733 4.51474,0.31628 8.97362,1.50201 13.19717,3.07871 1.16872,0.43635 3.4285,2.12445 4.60029,1.05098 0.82169,-0.75254 0.47552,-2.5588 0.47552,-3.56266 v -9.42658 -25.524155 -6.526079 c 0,-0.846782 0.2055,-2.028152 -0.36459,-2.736166 -1.00357,-1.246101 -4.55678,-0.599379 -6.01646,-0.599379 0,-0.757053 0.22003,-1.935189 -0.25263,-2.579433 -0.45276,-0.617087 -1.38135,-0.678344 -2.06773,-0.846869 -1.82222,-0.44745 -3.66143,-0.597975 -5.51091,-0.84093 -7.64,-1.003606 -17.66605,0.956019 -22.91374,7.022685 -5.87535,-5.87475 -14.926866,-8.093538 -23.058783,-7.022685 -1.804599,0.237635 -3.58692,0.428987 -5.365872,0.837253 -0.705652,0.161868 -1.595197,0.228035 -2.069836,0.850546 -0.52977,0.694806 -0.395569,1.761567 -0.395569,2.579433 m 29.43982,41.331769 c -0.97079,-0.30935 -1.82426,-0.97907 -2.75544,-1.40544 -2.03542,-0.93206 -4.19236,-1.65022 -6.38106,-2.12414 -5.90856,-1.27956 -11.47588,-0.53167 -17.402854,-0.53109 V 64.309575 c 6.876304,-1.333486 14.323424,-1.503004 20.738404,1.704467 1.86616,0.933091 4.67891,2.440459 5.65185,4.386532 0.40216,0.804161 0.14909,2.164048 0.14909,3.045498 v 7.10617 25.669188 m 29.4398,-41.911855 v 37.851215 c -5.93812,-5.9e-4 -11.48167,-0.7508 -17.40283,0.53107 -3.32946,0.72076 -6.0143,2.3865 -9.1365,3.52957 v -26.104264 -6.96114 c 0,-0.925836 -0.23639,-2.227855 0.27468,-3.044917 1.12973,-1.806552 3.67271,-3.170221 5.52627,-4.097067 6.68676,-3.343364 13.61889,-2.623886 20.73838,-1.704467 m -58.734606,3.480579 v 27.844553 6.671093 c 0,0.88553 -0.204477,2.02526 0.606958,2.62739 0.624614,0.46363 1.440377,0.26119 2.148494,0.16889 1.541023,-0.2007 3.09252,-0.3569 4.640764,-0.46291 3.123526,-0.21391 6.480973,-0.14614 9.571559,0.34065 1.86138,0.2931 3.660701,0.96936 5.510901,1.24155 v 0.14511 c -3.453153,-0.003 -6.825531,-0.45074 -10.29668,-0.12046 -5.489037,0.52238 -10.455696,2.04889 -15.662558,3.74597 V 67.790067 h 3.480562 m 65.115666,0 -0.14485,42.201913 c -5.20707,-1.69721 -10.17384,-3.22374 -15.66254,-3.74597 -3.47219,-0.33052 -6.84296,0.11087 -10.29672,0.12046 v -0.14511 c 5.10994,-1.0575 9.81857,-1.82005 15.0825,-1.5896 1.5439,0.0678 3.10523,0.26815 4.64074,0.4519 0.68974,0.0824 1.53842,0.29977 2.1597,-0.13004 0.85203,-0.58966 0.74078,-1.74348 0.74078,-2.64784 V 95.634689 67.790135 Z"
       id="path556" /><path
       style="fill:#ffffff;stroke:none;stroke-width:0.13639"
       d="m 108.51276,65.21948 c -1.51217,-3.685944 -2.26611,-7.459998 -0.85993,-11.320385 0.29937,-0.821943 1.44612,-3.416221 2.60381,-3.159915 0.65768,0.145608 0.69655,1.417899 0.7091,1.932404 0.0496,2.017892 -0.11236,3.996641 -0.27072,6.001169 h 0.13638 c 0.19688,-0.421858 0.4266,-0.825842 0.66298,-1.227514 0.71125,-1.209235 1.87399,-1.916009 2.16014,0 0.21642,1.448326 -0.10101,2.946297 -0.36812,4.364483 1.91449,-1.409315 3.35901,-4.332295 3.54614,-6.683119 h 0.13637 c 0.11216,0.833622 0.33483,1.601222 0.24946,2.455029 -0.29489,2.95203 -2.25972,5.159365 -3.38644,7.77424 1.00821,-0.635856 1.74498,-1.633137 2.43387,-2.591414 1.00056,-1.391863 1.91643,-3.052002 2.16247,-4.773658 0.67269,-4.70778 -3.136,-8.832724 -3.23245,-13.502627 -1.54392,0.76158 -1.17568,3.86931 -1.09112,5.31922 h -0.13637 c -1.01393,-3.716126 -1.05472,-6.447902 -0.54556,-10.229261 -1.6472,0.525777 -3.08026,2.248731 -4.1441,3.546144 -3.21866,3.924981 -5.22741,10.040354 -4.62374,15.139302 0.30129,2.545996 0.96291,6.096097 3.8578,6.955902 m -9.683707,1.500289 c 0.579522,2.234341 1.451327,4.343755 3.142297,5.988891 4.80339,4.673137 13.34619,4.754562 17.97484,-0.26255 1.53057,-1.658781 2.32997,-3.576557 2.88753,-5.726341 H 98.829045 m 6.273935,10.229263 v 1.773066 H 113.15 l 2.91832,-0.140202 0.21868,-1.632862 h -11.18401 m 1.50029,2.318628 2.45504,26.050528 h 3.40977 c 1.18413,-6.378703 1.13243,-13.178026 1.74987,-19.640188 0.19547,-2.046945 0.0922,-4.272964 0.56873,-6.273946 -2.38529,-0.705001 -5.6921,-0.136391 -8.18341,-0.136391 m 2.45504,26.868865 v 3.13698 h 3.40977 v -3.13698 z"
       id="path600" /><path
       style="fill:#ffffff;stroke:none;stroke-width:0.485638;fill-opacity:1"
       d="m 61.326083,52.085906 c -5.376024,5.633418 -8.71285,13.178788 -5.827668,20.882488 3.859372,-3.82976 7.906688,-15.555505 5.827668,-20.882488 M 51.127664,67.626359 c -0.948454,5.109405 -1.344735,11.725745 3.885111,14.569169 2.017344,-5.679544 7.622589,-7.62938 7.770225,-14.569169 -5.207507,1.771611 -6.661511,7.235045 -7.284585,12.140968 h -0.48564 c 0,-4.155118 0.142782,-9.677324 -3.885111,-12.140968 m 4.370751,21.853754 c 5.524629,-1.550655 6.313306,-6.751358 6.313306,-11.655335 -4.90301,1.671577 -6.216664,6.970863 -6.313306,11.655335 m -5.827667,-9.712786 c -1.829888,5.406626 0.413278,9.763299 5.827667,11.655336 C 54.9443,87.133022 53.729233,81.973581 49.670748,79.767327 m 7.284584,20.396833 c 4.259054,-3.065349 5.341543,-7.15103 5.342028,-12.140964 -5.575135,1.565706 -5.94665,7.355967 -5.342028,12.140964 m -7.284584,-9.712763 c -0.988277,5.570755 2.056193,9.831763 7.284584,11.655343 C 56.286606,97.563079 54.37853,92.056419 49.670748,90.451397 m 11.655335,20.396853 h 0.485638 c 2.61711,-4.50091 3.46455,-8.84204 0.971279,-13.597919 -4.694672,2.440829 -3.5,9.699699 -1.456917,13.597919 m -11.169697,-8.74151 c 0.05875,7.02283 4.831136,10.87199 11.655335,11.16969 -1.868253,-5.09533 -6.293881,-9.8842 -11.655335,-11.16969 m 16.026086,4.37076 c -2.118356,5.50082 -1.812891,10.09205 1.456917,15.0548 h 0.971279 c 1.466144,-5.2177 1.492854,-10.36451 -1.456917,-15.0548 h -0.971279 m -11.169697,8.25585 c 0.172884,8.11989 7.016027,8.7415 13.597893,8.7415 -2.943459,-4.14396 -8.421467,-8.22235 -13.597893,-8.7415 M 72.01014,115.219 c -1.396212,6.10885 -0.559941,10.39656 3.885112,15.0548 -4.744208,-2.49619 -9.118844,-4.41058 -14.569169,-3.39946 2.851671,6.38031 9.504926,7.25543 15.540446,5.34201 l -0.971277,-1.45692 c 3.038644,-4.27216 0.707576,-13.19237 -3.885112,-15.54043 m 7.770223,9.22713 c -1.318024,5.53677 1.064521,10.31789 6.313308,12.62662 -0.0145,-5.20314 -1.149022,-10.34896 -6.313308,-12.62662 m 7.770225,6.3133 c 0.04517,5.39934 3.24164,9.70308 8.741501,10.68407 -0.239905,-5.23374 -3.427155,-9.73609 -8.741501,-10.68407 m -16.511727,5.82767 c 3.442696,5.83835 11.328015,4.42516 16.511727,2.4282 v -0.97128 c -5.82524,-1.89448 -10.48349,-2.70064 -16.511727,-1.45692 m 27.195784,-0.97126 c 0.279243,6.00637 5.722775,8.62834 11.169695,8.7415 -2.12661,-5.07299 -5.92868,-7.52838 -11.169695,-8.7415 m -18.454282,7.77021 v 0.97129 c 4.98897,2.89829 14.711463,4.32655 17.968643,-1.94257 -6.503677,-0.82219 -11.64368,-1.08637 -17.968643,0.97128 m 14.083531,3.39947 v 0.97129 c 5.283262,1.68952 12.379436,3.59713 15.540446,-2.42821 -5.16671,-0.95913 -10.735533,-0.78527 -15.540446,1.45692"
       id="path302"
       sodipodi:nodetypes="ccccccccccccccccccccccccccccccccccccccccccccccccccccccccccccccc" /><text
       xml:space="preserve"
       style="font-style:normal;font-variant:normal;font-weight:bold;font-stretch:normal;font-size:6.47519px;line-height:1.25;font-family:sans-serif;-inkscape-font-specification:'sans-serif, Bold';font-variant-ligatures:normal;font-variant-caps:normal;font-variant-numeric:normal;font-variant-east-asian:normal;fill:#ffffff;fill-opacity:1;stroke:none;stroke-width:0.485638"
       id="text604"
       transform="translate(1.8374783,5.5755331)"><textPath
         xlink:href="#path723"
         id="textPath732"
         style="stroke-width:0.485638"><tspan
           id="tspan602"
           style="font-style:normal;font-variant:normal;font-weight:bold;font-stretch:normal;font-size:6.47519px;font-family:sans-serif;-inkscape-font-specification:'sans-serif, Bold';font-variant-ligatures:normal;font-variant-caps:normal;font-variant-numeric:normal;font-variant-east-asian:normal;stroke-width:0.485638">межрегиональная академия профессионального обучения</tspan></textPath></text><circle
       style="fill:none;stroke:none;stroke-width:0.542775;stroke-linejoin:round;paint-order:markers stroke fill"
       id="path723"
       cx="-137.291"
       cy="-17.096827"
       r="52.999554"
       transform="rotate(-149.3961)" /><rect
       style="fill:none;stroke:none;stroke-width:0.314;stroke-linejoin:round;paint-order:markers stroke fill"
       id="rect929"
       width="175.85632"
       height="166.57059"
       x="20.522173"
       y="5.916667" /></g></svg>
